<?xml version="1.0" standalone="no"?>
<!DOCTYPE svg PUBLIC "-//W3C//DTD SVG 20010904//EN"
 "http://www.w3.org/TR/2001/REC-SVG-20010904/DTD/svg10.dtd">
<svg version="1.0" xmlns="http://www.w3.org/2000/svg"
 width="626.000000pt" height="626.000000pt" viewBox="0 0 626.000000 626.000000"
 preserveAspectRatio="xMidYMid meet">
<metadata>
Created by potrace 1.16, written by Peter Selinger 2001-2019
</metadata>
<g transform="translate(0.000000,626.000000) scale(0.100000,-0.100000)"
fill="#000000" stroke="none">
<path d="M2354 6229 c167 -205 217 -327 218 -529 1 -163 -36 -278 -142 -435
-76 -113 -93 -152 -97 -230 -5 -75 0 -88 83 -230 42 -73 39 -140 -11 -268 -34
-88 -42 -100 -76 -117 -123 -63 -131 -233 -13 -291 37 -17 45 -25 41 -43 -7
-30 -27 -222 -35 -340 l-7 -100 -55 2 c-117 5 -240 -48 -323 -138 -211 -231
-152 -663 107 -776 l63 -27 -117 -181 c-136 -210 -204 -331 -195 -346 3 -5 13
-10 22 -10 9 0 101 -54 205 -120 271 -173 576 -355 906 -544 469 -267 488
-275 549 -229 31 22 487 771 577 946 31 59 56 117 56 130 -2 53 -123 -124
-440 -641 -118 -193 -217 -351 -220 -351 -3 -1 -24 78 -48 175 -24 96 -68 261
-98 365 -30 105 -54 192 -54 194 0 2 44 13 98 26 322 73 594 140 611 151 25
15 35 38 22 51 -19 19 -47 14 -856 -180 -148 -35 -284 -67 -301 -70 l-31 -5
-36 123 c-43 150 -117 424 -117 436 0 5 14 17 32 27 97 58 170 165 214 314 3
10 87 -29 272 -124 494 -254 872 -444 882 -444 48 0 -66 66 -560 325 -217 114
-437 230 -487 257 l-93 50 7 41 c5 23 8 64 8 92 0 67 -20 70 -86 11 -28 -26
-61 -49 -73 -52 -16 -4 -60 15 -144 60 -67 36 -128 66 -136 66 -8 0 -87 -113
-177 -250 -89 -138 -166 -249 -170 -248 -4 2 -37 29 -73 61 -188 167 -215 466
-56 640 82 89 197 130 307 108 91 -18 88 -27 90 287 l2 267 28 3 c35 4 70 37
89 82 17 40 20 124 6 161 -12 31 -57 69 -82 69 -29 0 -30 11 -5 44 48 64 75
137 75 208 0 82 -7 102 -73 202 -49 75 -52 84 -51 140 0 67 17 107 86 209 104
154 143 279 142 462 0 116 -3 139 -28 210 -38 111 -87 195 -158 271 -69 73
-121 111 -74 53z m101 -1879 c27 -29 17 -114 -21 -174 -34 -54 -44 -57 -44
-16 0 17 -4 30 -10 30 -5 0 -10 -11 -10 -25 0 -36 -24 -31 -57 12 -46 61 -33
145 29 180 36 19 92 16 113 -7z m39 -1244 c3 -36 22 -142 41 -237 19 -95 35
-174 35 -175 0 -6 -76 -22 -132 -29 -66 -7 -69 -3 -42 60 27 65 -3 60 -37 -6
-38 -76 -31 -205 13 -233 30 -19 40 5 23 53 -8 24 -15 45 -15 46 0 1 39 5 88
7 48 3 94 8 103 12 14 6 21 -14 49 -131 43 -185 111 -444 122 -466 12 -24 17
-23 276 38 112 26 205 46 207 44 1 -2 17 -80 34 -174 17 -93 47 -255 66 -359
19 -105 33 -192 30 -194 -11 -11 -824 442 -1170 653 -115 70 -222 135 -237
144 -16 9 -28 19 -28 23 0 4 84 34 188 67 256 83 402 137 421 156 15 16 13 16
-29 10 -46 -7 -278 -69 -487 -130 -65 -18 -119 -33 -120 -31 -1 1 44 72 100
158 56 85 188 291 292 456 105 166 193 301 196 302 3 0 9 -29 13 -64z m101 27
c41 -21 75 -40 75 -44 0 -4 -9 -9 -20 -12 -11 -3 -20 -11 -20 -17 0 -9 15 -11
57 -7 44 5 64 2 95 -14 21 -11 38 -27 38 -36 0 -9 -18 -53 -39 -98 -28 -57
-56 -96 -95 -133 -30 -29 -59 -52 -64 -52 -5 0 -12 15 -15 33 -3 17 -26 119
-50 225 -24 105 -42 192 -41 192 2 0 37 -17 79 -37z"/>
<path d="M2672 3798 c-20 -20 -15 -36 54 -167 86 -164 154 -257 154 -211 0 39
-141 365 -165 382 -15 11 -29 10 -43 -4z"/>
<path d="M1836 3500 c-73 -78 -116 -194 -116 -315 0 -56 13 -105 28 -105 5 0
10 46 10 103 0 136 29 218 115 330 42 54 18 46 -37 -13z"/>
<path d="M4335 2574 c-82 -36 -165 -72 -184 -80 -65 -29 -21 -25 111 10 219
58 266 74 273 96 8 26 -1 40 -28 40 -12 0 -89 -30 -172 -66z"/>
</g>
</svg>
